<?xml version="1.0" encoding="UTF-8"?>
<svg id="_图层_2" data-name="图层 2" xmlns="http://www.w3.org/2000/svg" viewBox="0 0 472.63 146.87">
  <defs>
    <style>
      .cls-1 {
        fill: #8a7000;
        font-family: TimesNewRomanPS-ItalicMT, 'Times New Roman';
        font-size: 110px;
        font-style: italic;
        stroke: #000;
        stroke-miterlimit: 10;
        stroke-width: 3px;
      }

      .cls-2 {
        fill: #bfac00;
        stroke-width: 0px;
      }
    </style>
  </defs>
  <g id="_云" data-name="云">
    <g>
      <g>
        <path class="cls-2" d="M18.22,4.24L6.94,41.19h3.28c3.15-6.55,6.44-12.18,9.88-16.87,3.44-4.69,7.04-8.5,10.8-11.44,3.76-2.93,7.76-5.09,12-6.47,4.24-1.38,9.03-2.07,14.37-2.07,7.58,0,14.65,1.55,21.21,4.66,6.56,3.11,12.24,7.49,17.06,13.14,4.82,5.66,8.57,12.35,11.23,20.08,2.67,7.73,4,16.04,4,24.94,0,13.46-2.47,25.72-7.42,36.79-4.95,11.07-11.75,19.77-20.39,26.08-8.64,6.31-18.24,9.47-28.78,9.47-7.26,0-14.06-1.52-20.39-4.55-6.33-3.04-11.97-7.42-16.92-13.14-4.95-5.73-9.26-12.94-12.92-21.63H0c5.4,15.32,13.53,26.93,24.39,34.83,10.86,7.9,24.14,11.85,39.82,11.85,18.32,0,33.49-5.31,45.51-15.94,5.14-4.62,9.46-9.87,12.97-15.73,3.5-5.86,6.19-12.3,8.05-19.3,1.87-7,2.8-14.2,2.8-21.58,0-13.73-3.23-26.29-9.69-37.67s-15.36-20.34-26.71-26.86C85.79,3.26,73.24,0,59.49,0c-5.78,0-13.4.9-22.85,2.69-6.56,1.31-11.31,1.97-14.27,1.97-1.29,0-2.67-.14-4.15-.41ZM67.87,143.35c8.16-2.41,15.56-5.86,22.17-10.35,6.62-4.48,12.15-9.83,16.58-16.04,4.44-6.21,7.79-13.26,10.08-21.17,2.28-7.9,3.42-16.51,3.42-25.82,0-6.9-.58-13.11-1.74-18.63-1.16-5.52-3.04-10.78-5.64-15.78-2.6-5-5.9-9.64-9.88-13.92-3.98-4.28-8.84-8.49-14.56-12.63,6.75,3.24,12.69,7.09,17.84,11.54,5.14,4.45,9.48,9.45,13.02,15.01,3.54,5.55,6.2,11.63,8,18.22,1.8,6.59,2.7,13.47,2.7,20.65,0,7.73-1.03,15.11-3.08,22.15-2.06,7.04-4.98,13.49-8.77,19.35-3.79,5.87-8.39,10.83-13.79,14.9-5.4,4-10.97,6.99-16.73,8.95-5.75,1.97-12.29,3.16-19.62,3.57Z"/>
        <path class="cls-2" d="M177.37,143.97v-2.79c-4.37-.83-7.36-2.43-8.97-4.81-1.61-2.38-2.41-6.47-2.41-12.26V24.12c0-5.8.82-9.92,2.46-12.37,1.64-2.45,4.61-4.02,8.92-4.71v-2.28l-31.04-3.83v123.16c0,5.73-.79,9.8-2.36,12.21-1.57,2.42-4.55,4.04-8.92,4.86v2.79h42.32ZM167.73,139.41h-19.28l2.31-1.86c.13-.14.26-.24.39-.31l1.25-1.04c.9-.96,1.38-2.28,1.45-3.93V5.28l15.81,1.86-3.76,2.9c-.06,0-.19.1-.39.31l-1.25,1.04c-.64.48-1.06,1.19-1.25,2.12-.19.93-.29,2.57-.29,4.92v110.74c0,2.83.13,4.59.39,5.28.26.69,1.03,1.62,2.31,2.79.19.14.29.24.29.31l2.02,1.86Z"/>
        <path class="cls-2" d="M257.05,57.92c3.58,6.98,5.36,14.49,5.31,22.5-.04,8.02-1.83,15.48-5.36,22.39-3.53,6.91-8.46,12.42-14.8,16.54-4.74,3.08-9.7,5-14.89,5.76-5.19.76-10.3.39-15.33-1.12-5.03-1.51-9.66-4.08-13.88-7.72s-7.68-8.08-10.37-13.32c-3.55-6.93-5.34-14.4-5.37-22.41-.02-8.01,1.73-15.48,5.26-22.39s8.41-12.39,14.65-16.44c6.33-4.11,13.05-6.19,20.14-6.22,7.1-.03,13.74,1.93,19.93,5.9,6.19,3.97,11.09,9.47,14.71,16.52ZM217.63,38.61c3.57.73,6.07,1.37,7.52,1.92,1.44.55,3.14,1.43,5.1,2.65,6.4,4.19,12.14,11.22,17.21,21.1,8.4,16.38,9.69,30.88,3.87,43.49,3.23-4.59,5.52-9.69,6.86-15.29,1.34-5.61,1.72-11.23,1.12-16.87-.6-5.63-2.19-10.98-4.79-16.04s-5.82-9.15-9.87-12.62c-4.04-3.48-8.44-5.88-13.18-7.22-2.48-.56-4.42-.9-5.82-1.04-1.4-.14-4.07-.17-8.02-.09ZM240.95,69.1c-2.69-5.24-5.6-9.78-8.72-13.6-3.13-3.83-6.31-6.76-9.55-8.79-3.24-2.03-6.42-3.16-9.55-3.37-3.13-.21-6.05.56-8.74,2.3s-4.67,4.18-6.08,7.38c-1.41,3.21-2.14,6.85-2.17,10.93-.03,4.08.65,8.63,2.07,13.65,1.42,5.02,3.45,10.12,6.11,15.3,3.55,6.92,7.46,12.57,11.74,16.95,4.27,4.37,8.55,7.13,12.83,8.29,4.28,1.15,8.24.55,11.88-1.82,5.53-3.6,8.3-9.73,8.31-18.4,0-8.67-2.7-18.28-8.11-28.82ZM196.7,50.28c-4.79,7.77-7.36,15.8-7.72,24.11-.36,8.3,1.47,16.37,5.49,24.2,4.11,8.01,9.45,14.05,16.03,18.13,6.58,4.08,13.32,5.6,20.24,4.56-11.09-1.79-20.79-10.78-29.1-26.98-4.2-8.19-6.75-15.65-7.64-22.38-.89-6.73-.2-13.32,2.07-19.77l.64-1.86Z"/>
        <path class="cls-2" d="M341.53,21.53c-5.46-7.31-10.7-12.58-15.71-15.78-5.01-3.21-10.45-4.81-16.29-4.81-5.14,0-9.75,1.23-13.83,3.67-4.08,2.45-7.28,5.81-9.59,10.09-2.38,4.42-3.57,10.76-3.57,19.04v32.81c0,5.73-.8,9.83-2.41,12.32-1.61,2.48-4.56,4.07-8.87,4.76v2.28l31.04,3.83v-56.61c0-7.59.45-12.8,1.35-15.63.96-3.17,2.49-5.64,4.58-7.4,2.09-1.76,4.51-2.64,7.28-2.64,3.86,0,7.63,1.31,11.33,3.93,3.7,2.62,8.08,7.14,13.16,13.56l1.54,1.97v39.64c0,5.73-.8,9.83-2.41,12.32-1.61,2.48-4.56,4.07-8.87,4.76v2.28l31.04,3.83V23.08c0-5.73.79-9.8,2.36-12.21,1.57-2.42,4.55-4.04,8.92-4.86v-2.79h-31.04v18.32ZM294.67,85.49l-15.81-1.97,3.86-2.9c.06,0,.11-.02.14-.05.03-.04.11-.12.24-.26l1.25-1.04c.58-.41.96-1.03,1.16-1.86.19-.83.29-2.55.29-5.17v-38.61c0-4.9.42-8.95,1.25-12.16.83-3.21,2.18-6.09,4.05-8.64,2.38-2.97,4.96-5.24,7.76-6.83,2.8-1.59,5.51-2.38,8.15-2.38.19,0,1.12.07,2.8.21-3.86.62-6.86,1.95-9.01,3.98-2.15,2.03-3.71,5.04-4.68,9-.96,3.97-1.45,9.37-1.45,16.2v52.47ZM344.81,7.76h14.27l-2.22,1.86c-.19.21-.32.31-.39.31l-1.25,1.04c-.96,1.04-1.45,2.34-1.45,3.93v2.07l-.1,1.04v67.38l-15.81-1.86,3.86-2.9c.06,0,.11-.02.14-.05.03-.04.11-.12.24-.26l1.25-1.04c.58-.41.96-1.03,1.16-1.86.19-.83.29-2.55.29-5.17V7.76Z"/>
        <path class="cls-2" d="M441.59,13.77l-.38-.31c-8.68-8.21-17.9-12.32-27.67-12.32-7.01,0-13.4,1.78-19.19,5.33-5.78,3.55-10.33,8.49-13.64,14.8-3.31,6.31-4.96,13.23-4.96,20.75,0,8.35,1.91,16.21,5.74,23.6,3.82,7.38,8.98,13.28,15.47,17.7,6.49,4.42,13.4,6.62,20.73,6.62,8.42,0,16.39-3.24,23.91-9.73v42.85c0,5.73-.8,9.83-2.41,12.32-1.61,2.48-4.56,4.07-8.87,4.76v2.28l30.95,3.83V23.08c0-5.73.82-9.8,2.46-12.21,1.64-2.42,4.61-4.04,8.92-4.86v-2.79h-31.04v10.56ZM408.42,4.24c-3.92,2.48-6.81,4.59-8.68,6.31-1.87,1.72-3.7,4.1-5.5,7.14-4.37,7.52-6.56,16.35-6.56,26.5,0,8.42,1.19,15.59,3.57,21.53,2.38,5.93,6.49,12.04,12.34,18.32-8.1-5.04-14.22-11.13-18.37-18.27-4.15-7.14-6.22-15.09-6.22-23.86,0-9.45,2.59-17.53,7.76-24.22,5.17-6.69,12.39-11.18,21.64-13.46ZM441.59,74.31l-.77.72c-4.18,3.86-7.95,6.69-11.33,8.49-3.38,1.79-6.67,2.69-9.88,2.69-4.56,0-8.61-1.6-12.15-4.81-3.54-3.21-6.27-7.76-8.2-13.66-1.93-5.9-2.89-12.85-2.89-20.85s.93-14.53,2.8-20.6c1.86-6.07,4.51-10.82,7.95-14.23,3.44-3.42,7.41-5.12,11.91-5.12,7,0,14.52,4.73,22.56,14.18v53.2ZM444.87,7.76h14.27l-2.22,1.86c-.13.07-.26.17-.39.31l-1.25,1.04c-.96,1.04-1.45,2.34-1.45,3.93l-.1,2.07v124.92l-15.81-1.86,3.76-2.9c.06,0,.19-.1.39-.31l1.25-1.04c.64-.48,1.06-1.12,1.25-1.92.19-.79.29-2.5.29-5.12V7.76Z"/>
      </g>
      <text class="cls-1" transform="translate(8.62 101.69) scale(1.24 1)"><tspan x="0" y="0">w</tspan></text>
    </g>
  </g>
</svg>