<?xml version="1.0" encoding="utf-8"?>
<!-- Generator: Adobe Illustrator 28.1.0, SVG Export Plug-In . SVG Version: 6.00 Build 0)  -->
<svg version="1.1" xmlns="http://www.w3.org/2000/svg" xmlns:xlink="http://www.w3.org/1999/xlink" x="0px" y="0px"
	 viewBox="0 0 1920 1080" style="enable-background:new 0 0 1920 1080;" xml:space="preserve">
<style type="text/css">
	.st0{fill:#BFAC00;}
	.st1{fill:#8A7000;stroke:#000000;stroke-width:3;stroke-miterlimit:10;}
	.st2{font-family:'TimesNewRomanPS-ItalicMT';}
	.st3{font-size:110px;}
	.st4{fill:#82C8FF;}
	.st5{fill:none;}
	.st6{fill:#FF4F3F;stroke:#000000;stroke-width:6;stroke-miterlimit:10;}
	.st7{font-family:'Chalkduster';}
	.st8{font-size:500px;}
</style>
<g id="文本">
</g>
<g id="云_00000170969102045476674290000013607697232467891866_">
	<g>
		<g>
			<g>
				<path class="st0" d="M741.9,768.9l-11.3,36.9h3.3c3.1-6.6,6.4-12.2,9.9-16.9c3.4-4.7,7-8.5,10.8-11.4c3.8-2.9,7.8-5.1,12-6.5
					c4.2-1.4,9-2.1,14.4-2.1c7.6,0,14.7,1.6,21.2,4.7c6.6,3.1,12.2,7.5,17.1,13.1c4.8,5.7,8.6,12.4,11.2,20.1c2.7,7.7,4,16,4,24.9
					c0,13.5-2.5,25.7-7.4,36.8c-4.9,11.1-11.7,19.8-20.4,26.1c-8.6,6.3-18.2,9.5-28.8,9.5c-7.3,0-14.1-1.5-20.4-4.6
					c-6.3-3-12-7.4-16.9-13.1c-4.9-5.7-9.3-12.9-12.9-21.6h-4c5.4,15.3,13.5,26.9,24.4,34.8c10.9,7.9,24.1,11.9,39.8,11.9
					c18.3,0,33.5-5.3,45.5-15.9c5.1-4.6,9.5-9.9,13-15.7c3.5-5.9,6.2-12.3,8.1-19.3c1.9-7,2.8-14.2,2.8-21.6
					c0-13.7-3.2-26.3-9.7-37.7s-15.4-20.3-26.7-26.9c-11.3-6.5-23.9-9.8-37.6-9.8c-5.8,0-13.4,0.9-22.8,2.7c-6.6,1.3-11.3,2-14.3,2
					C744.8,769.3,743.4,769.2,741.9,768.9z M791.6,908c8.2-2.4,15.6-5.9,22.2-10.3c6.6-4.5,12.1-9.8,16.6-16
					c4.4-6.2,7.8-13.3,10.1-21.2c2.3-7.9,3.4-16.5,3.4-25.8c0-6.9-0.6-13.1-1.7-18.6c-1.2-5.5-3-10.8-5.6-15.8
					c-2.6-5-5.9-9.6-9.9-13.9c-4-4.3-8.8-8.5-14.6-12.6c6.7,3.2,12.7,7.1,17.8,11.5c5.1,4.5,9.5,9.5,13,15c3.5,5.6,6.2,11.6,8,18.2
					c1.8,6.6,2.7,13.5,2.7,20.6c0,7.7-1,15.1-3.1,22.1c-2.1,7-5,13.5-8.8,19.4c-3.8,5.9-8.4,10.8-13.8,14.9c-5.4,4-11,7-16.7,9
					C805.4,906.4,798.9,907.6,791.6,908z"/>
				<path class="st0" d="M901.1,908.6v-2.8c-4.4-0.8-7.4-2.4-9-4.8c-1.6-2.4-2.4-6.5-2.4-12.3v-100c0-5.8,0.8-9.9,2.5-12.4
					c1.6-2.4,4.6-4,8.9-4.7v-2.3l-31-3.8v123.2c0,5.7-0.8,9.8-2.4,12.2c-1.6,2.4-4.5,4-8.9,4.9v2.8H901.1z M891.4,904.1h-19.3
					l2.3-1.9c0.1-0.1,0.3-0.2,0.4-0.3l1.3-1c0.9-1,1.4-2.3,1.4-3.9v-2.1v-1V769.9l15.8,1.9l-3.8,2.9c-0.1,0-0.2,0.1-0.4,0.3l-1.3,1
					c-0.6,0.5-1.1,1.2-1.3,2.1c-0.2,0.9-0.3,2.6-0.3,4.9v110.7c0,2.8,0.1,4.6,0.4,5.3c0.3,0.7,1,1.6,2.3,2.8
					c0.2,0.1,0.3,0.2,0.3,0.3L891.4,904.1z"/>
				<path class="st0" d="M980.7,822.6c3.6,7,5.4,14.5,5.3,22.5c0,8-1.8,15.5-5.4,22.4c-3.5,6.9-8.5,12.4-14.8,16.5
					c-4.7,3.1-9.7,5-14.9,5.8c-5.2,0.8-10.3,0.4-15.3-1.1c-5-1.5-9.7-4.1-13.9-7.7c-4.2-3.6-7.7-8.1-10.4-13.3
					c-3.6-6.9-5.3-14.4-5.4-22.4c0-8,1.7-15.5,5.3-22.4c3.5-6.9,8.4-12.4,14.6-16.4c6.3-4.1,13-6.2,20.1-6.2
					c7.1,0,13.7,1.9,19.9,5.9C972.2,810,977.1,815.5,980.7,822.6z M941.3,803.3c3.6,0.7,6.1,1.4,7.5,1.9c1.4,0.5,3.1,1.4,5.1,2.7
					c6.4,4.2,12.1,11.2,17.2,21.1c8.4,16.4,9.7,30.9,3.9,43.5c3.2-4.6,5.5-9.7,6.9-15.3c1.3-5.6,1.7-11.2,1.1-16.9
					c-0.6-5.6-2.2-11-4.8-16c-2.5-4.9-5.8-9.1-9.9-12.6c-4-3.5-8.4-5.9-13.2-7.2c-2.5-0.6-4.4-0.9-5.8-1
					C947.9,803.2,945.3,803.2,941.3,803.3z M964.6,833.7c-2.7-5.2-5.6-9.8-8.7-13.6c-3.1-3.8-6.3-6.8-9.5-8.8
					c-3.2-2-6.4-3.2-9.6-3.4c-3.1-0.2-6,0.6-8.7,2.3c-2.6,1.7-4.7,4.2-6.1,7.4c-1.4,3.2-2.1,6.8-2.2,10.9c0,4.1,0.7,8.6,2.1,13.7
					c1.4,5,3.4,10.1,6.1,15.3c3.6,6.9,7.5,12.6,11.7,16.9c4.3,4.4,8.5,7.1,12.8,8.3c4.3,1.2,8.2,0.5,11.9-1.8
					c5.5-3.6,8.3-9.7,8.3-18.4C972.7,853.9,970,844.3,964.6,833.7z M920.4,814.9c-4.8,7.8-7.4,15.8-7.7,24.1
					c-0.4,8.3,1.5,16.4,5.5,24.2c4.1,8,9.5,14.1,16,18.1c6.6,4.1,13.3,5.6,20.2,4.6c-11.1-1.8-20.8-10.8-29.1-27
					c-4.2-8.2-6.7-15.7-7.6-22.4c-0.9-6.7-0.2-13.3,2.1-19.8L920.4,814.9z"/>
				<path class="st0" d="M1065.2,786.2c-5.5-7.3-10.7-12.6-15.7-15.8c-5-3.2-10.4-4.8-16.3-4.8c-5.1,0-9.8,1.2-13.8,3.7
					c-4.1,2.4-7.3,5.8-9.6,10.1c-2.4,4.4-3.6,10.8-3.6,19v32.8c0,5.7-0.8,9.8-2.4,12.3c-1.6,2.5-4.6,4.1-8.9,4.8v2.3l31,3.8v-56.6
					c0-7.6,0.4-12.8,1.3-15.6c1-3.2,2.5-5.6,4.6-7.4c2.1-1.8,4.5-2.6,7.3-2.6c3.9,0,7.6,1.3,11.3,3.9c3.7,2.6,8.1,7.1,13.2,13.6
					l1.5,2v39.6c0,5.7-0.8,9.8-2.4,12.3c-1.6,2.5-4.6,4.1-8.9,4.8v2.3l31,3.8v-66.7c0-5.7,0.8-9.8,2.4-12.2c1.6-2.4,4.5-4,8.9-4.9
					v-2.8h-31V786.2z M1018.4,850.1l-15.8-2l3.9-2.9c0.1,0,0.1,0,0.1-0.1c0,0,0.1-0.1,0.2-0.3l1.3-1c0.6-0.4,1-1,1.2-1.9
					c0.2-0.8,0.3-2.6,0.3-5.2v-38.6c0-4.9,0.4-9,1.3-12.2c0.8-3.2,2.2-6.1,4-8.6c2.4-3,5-5.2,7.8-6.8c2.8-1.6,5.5-2.4,8.1-2.4
					c0.2,0,1.1,0.1,2.8,0.2c-3.9,0.6-6.9,1.9-9,4c-2.2,2-3.7,5-4.7,9c-1,4-1.4,9.4-1.4,16.2V850.1z M1068.5,772.4h14.3l-2.2,1.9
					c-0.2,0.2-0.3,0.3-0.4,0.3l-1.3,1c-1,1-1.4,2.3-1.4,3.9v2.1l-0.1,1V850l-15.8-1.9l3.9-2.9c0.1,0,0.1,0,0.1-0.1
					c0,0,0.1-0.1,0.2-0.3l1.3-1c0.6-0.4,1-1,1.2-1.9c0.2-0.8,0.3-2.6,0.3-5.2V772.4z"/>
				<path class="st0" d="M1165.3,778.4l-0.4-0.3c-8.7-8.2-17.9-12.3-27.7-12.3c-7,0-13.4,1.8-19.2,5.3c-5.8,3.6-10.3,8.5-13.6,14.8
					c-3.3,6.3-5,13.2-5,20.8c0,8.3,1.9,16.2,5.7,23.6c3.8,7.4,9,13.3,15.5,17.7c6.5,4.4,13.4,6.6,20.7,6.6c8.4,0,16.4-3.2,23.9-9.7
					v42.8c0,5.7-0.8,9.8-2.4,12.3c-1.6,2.5-4.6,4.1-8.9,4.8v2.3l30.9,3.8V787.7c0-5.7,0.8-9.8,2.5-12.2c1.6-2.4,4.6-4,8.9-4.9v-2.8
					h-31V778.4z M1132.1,768.9c-3.9,2.5-6.8,4.6-8.7,6.3c-1.9,1.7-3.7,4.1-5.5,7.1c-4.4,7.5-6.6,16.4-6.6,26.5
					c0,8.4,1.2,15.6,3.6,21.5c2.4,5.9,6.5,12,12.3,18.3c-8.1-5-14.2-11.1-18.4-18.3c-4.1-7.1-6.2-15.1-6.2-23.9
					c0-9.5,2.6-17.5,7.8-24.2C1115.6,775.6,1122.9,771.2,1132.1,768.9z M1165.3,839l-0.8,0.7c-4.2,3.9-8,6.7-11.3,8.5
					c-3.4,1.8-6.7,2.7-9.9,2.7c-4.6,0-8.6-1.6-12.1-4.8c-3.5-3.2-6.3-7.8-8.2-13.7c-1.9-5.9-2.9-12.9-2.9-20.9
					c0-7.7,0.9-14.5,2.8-20.6c1.9-6.1,4.5-10.8,8-14.2c3.4-3.4,7.4-5.1,11.9-5.1c7,0,14.5,4.7,22.6,14.2V839z M1168.6,772.4h14.3
					l-2.2,1.9c-0.1,0.1-0.3,0.2-0.4,0.3l-1.3,1c-1,1-1.4,2.3-1.4,3.9l-0.1,2.1v1v123.9l-15.8-1.9l3.8-2.9c0.1,0,0.2-0.1,0.4-0.3
					l1.3-1c0.6-0.5,1.1-1.1,1.3-1.9c0.2-0.8,0.3-2.5,0.3-5.1V772.4z"/>
			</g>
			<text transform="matrix(1.2407 0 0 1 732.3074 866.3335)" class="st1 st2 st3">w</text>
		</g>
		<g>
			<ellipse class="st4" cx="607" cy="568.7" rx="179.5" ry="152.2"/>
			<circle class="st4" cx="943.5" cy="569" r="152"/>
			<ellipse class="st4" cx="1296.5" cy="537.7" rx="196" ry="183.2"/>
			<ellipse class="st4" cx="770" cy="455.2" rx="193.5" ry="177.8"/>
			<ellipse class="st4" cx="1035" cy="389.5" rx="248" ry="221"/>
			<polyline class="st4" points="618.5,721 1296.5,721 1307.7,508 618.5,491.6 			"/>
		</g>
		<rect x="706.7" y="171.5" class="st5" width="506.6" height="474"/>
		<text transform="matrix(1.2407 0 0 1 706.7227 599.9426)" class="st6 st7 st8">w</text>
	</g>
</g>
</svg>
